<svg height="297mm" viewBox="0 0 744.09448819 1052.3622047" width="210mm" xmlns="http://www.w3.org/2000/svg" xmlns:xlink="http://www.w3.org/1999/xlink"><linearGradient id="a" gradientUnits="userSpaceOnUse" x1="261.62952" x2="548.71484" y1="691.73773" y2="366.46863"><stop offset="0" stop-color="#4e505d"/><stop offset="1" stop-color="#7a859c"/></linearGradient><path d="m190 322.36221h400v400h-400z" fill="none"/><path d="m420.64752 322.36221a38.915469 38.277511 0 0 0 -38.91547 38.27751 38.915469 38.277511 0 0 0 22.44818 34.63416l-30.02394 62.3754a70.175436 70.175436 0 0 0 -26.23604-5.14353 70.175436 70.175436 0 0 0 -48.24064 19.26336l-31.43441-26.35567a22.328548 22.328548 0 0 0 1.84411-8.85665 22.328548 22.328548 0 0 0 -22.32855-22.32855 22.328548 22.328548 0 0 0 -22.32854 22.32855 22.328548 22.328548 0 0 0 22.32854 22.32854 22.328548 22.328548 0 0 0 14.5933-5.46253l30.64694 25.69279a70.175436 70.175436 0 0 0 -15.25619 43.5656 70.175436 70.175436 0 0 0 32.41626 59.061l-38.38216 54.39594a47.20893 47.20893 0 0 0 -26.56998-8.19379 47.20893 47.20893 0 0 0 -47.20893 47.20893 47.20893 47.20893 0 0 0 47.20893 47.20893 47.20893 47.20893 0 0 0 47.20893-47.20893 47.20893 47.20893 0 0 0 -13.61643-33.14393l39.40391-55.84133a70.175436 70.175436 0 0 0 29.71491 6.68861 70.175436 70.175436 0 0 0 33.56759-8.62739l21.42145 34.44976a15.948963 15.948963 0 0 0 -4.9093 11.49821 15.948963 15.948963 0 0 0 15.94897 15.94896 15.948963 15.948963 0 0 0 15.94896-15.94896 15.948963 15.948963 0 0 0 -15.94896-15.94897 15.948963 15.948963 0 0 0 -2.89575.27412l-21.86501-35.16746a70.175436 70.175436 0 0 0 28.90749-56.6537 70.175436 70.175436 0 0 0 -.45354-7.27174l108.67723-23.24562a29.98405 29.98405 0 0 0 26.64972 16.26794 29.98405 29.98405 0 0 0 29.98405-29.98405 29.98405 29.98405 0 0 0 -29.98405-29.98405 29.98405 29.98405 0 0 0 -29.98405 29.98405 29.98405 29.98405 0 0 0 .4286 5.00897l-107.31656 22.95158a70.175436 70.175436 0 0 0 -33.02931-44.38798l30.68183-63.74101a38.915469 38.277511 0 0 0 6.89791.63795 38.915469 38.277511 0 0 0 38.91547-38.27751 38.915469 38.277511 0 0 0 -38.91547-38.27751z" fill="url(#a)"/></svg>