<svg height="297mm" viewBox="0 0 744.09448819 1052.3622047" width="210mm" xmlns="http://www.w3.org/2000/svg" xmlns:xlink="http://www.w3.org/1999/xlink"><linearGradient id="a" gradientUnits="userSpaceOnUse" x1="252.21738917494" x2="454.76990162605" y1="694.37702704632" y2="240.8244010896"><stop offset="0" stop-color="#eeeeec" stop-opacity=".718346"/><stop offset="1" stop-color="#eeeeec" stop-opacity="0"/></linearGradient><g fill-rule="evenodd"><path d="m404.83179 339.96645c-18.75563 0-34.03374 15.3467-34.03374 34.17128 0 9.82152 4.22727 19.16456 11.52525 25.64403l-27.96249 55.31424c-3.4103-.61386-6.88916-.88581-10.36765-.88581-15.48267 0-30.48698 5.18293-42.55937 14.79993l-47.19797-31.30594c.34102-1.50054.47647-6.68372.47647-8.25219 0-12.61797-12.07316-22.91784-24.69109-22.91784-12.61797 0-22.84743 12.07398-22.84743 24.75984 0 12.61806 10.22946 24.6878 22.84743 24.68781 4.02413 0 7.91412-1.02057 11.39261-3.06675l46.5152 30.55441c-7.97995 11.45853-12.27842 25.09955-12.27842 39.08167 0 17.93721 7.09402 35.19395 19.71193 48.01662l-32.3964 53.81446c-5.52455-2.25078-7.77458-3.41058-13.77657-3.41058-25.2359 0-42.01578 14.7333-42.01578 39.69566 0 24.96325 15.00445 43.37805 40.17214 43.37805 25.23588 0 43.85614-20.25679 43.85614-45.22005 0-10.29906-3.19255-14.27114-9.67211-22.2512l33.81796-52.02509c8.93496 4.16054 18.75548 6.34307 28.64526 6.34307 8.93495 0 17.8021-1.77249 26.05499-5.25095l19.50562 38.26299v1.09046c0 6.27491 5.04567 11.39097 11.32058 11.39097 6.27489 0 11.39261-5.11606 11.39261-11.39097 0-5.04724-3.34304-9.48055-8.25384-10.91286l-18.14172-37.649c16.64124-12.89086 26.39557-32.80694 26.39556-53.88158 0-1.2277-.0696-2.52181-.13753-3.74951l94.66934-15.82489c5.59285 11.936 17.46001 19.5744 30.48727 19.5744 18.62013 0 33.69319-15.27669 33.69319-34.16965 0-18.89292-15.07306-32.39969-33.69319-32.39968-15.55085.0684-29.05388 9.00426-32.73698 24.35051l-97.33002 16.50604c-6.41132-15.75549-18.4828-28.57774-33.82908-35.87576l25.64401-53.1333c1.90979.34104 3.88807.54521 5.79782.54521 18.82475 0 34.03538-15.34392 34.03538-34.23677-.00003-18.82458-15.21064-34.17128-34.03538-34.17128z" fill="#555753" stroke="#555753" stroke-width="25"/><path d="m404.8327 321.89967c-28.64031 0-52.10163 23.60198-52.10163 52.23792 0 10.0174 3.0407 19.57295 8.25074 27.81243l-17.29688 34.2166c-14.83211.0528-29.24445 4.07208-42.06032 11.28854l-28.90841-19.1752c-.6739-23.07403-20.87243-39.81232-42.69514-39.81232-23.70539 0-40.91392 20.64882-40.91392 42.82584 0 22.14704 17.21956 42.75486 40.91392 42.75488 3.05446 0 6.01288-.47783 8.90983-1.14827l25.43747 16.70874c-4.32791 10.35892-6.78507 21.49569-6.78507 32.94137 0 17.87205 5.60582 35.1522 15.73972 49.5997l-18.76443 31.16949c-1.71167-.21679-3.45226-.41451-5.3698-.41451-16.16738 0-31.47306 4.85819-42.74555 15.29348-11.34291 10.50047-17.33609 25.83197-17.33609 42.46922 0 16.11696 4.915 31.52512 15.23747 43.08537 10.41045 11.65878 25.89262 18.35925 43.00134 18.35925 35.03694 0 61.9226-29.16624 61.9226-63.28745 0-8.86044-2.5412-16.29557-6.00835-22.53039l19.515-30.01747c6.90185 1.76556 14.02922 2.68116 21.21781 2.68116 5.64357 0 11.20725-.77253 16.70127-1.88204l11.20451 21.97771c2.01007 14.19797 14.17621 25.39826 28.97564 25.39826 16.15902 0 29.45921-13.29558 29.45921-29.45734 0-9.76716-4.9288-18.5456-12.53575-23.92698l-9.94236-20.6334c11.66333-12.86172 19.16238-28.95544 21.51655-46.19597l68.99334-11.53312c9.65072 11.12325 23.72536 17.91302 38.91985 17.91302 28.54701 0 51.75994-23.66749 51.75994-52.23604 0-28.71403-24.12444-50.46794-51.75994-50.46791h-.0186-.0411-.0186c-18.56391.0816-36.32456 9.70451-45.39311 26.25153l-74.81498 12.68885c-5.43133-8.65769-12.30569-16.24468-20.37761-22.46129l13.62988-28.24187c26.16073-2.75369 46.68329-25.19426 46.68329-52.01387-.00005-28.60583-23.41551-52.23792-52.10162-52.23792zm0 9.03307c23.73454 0 43.06851 19.51395 43.06855 43.20485 0 23.7416-19.33489 43.27021-43.06855 43.27021-.12914 0-.24471-.0345-.37343-.0355l-19.24801 39.8777c11.52585 7.26719 20.96817 17.43336 27.2859 29.53016l85.26518-14.46074c6.5539-15.8658 22.51927-25.29755 39.48372-25.37211h.0205.0186c22.98879-.00002 42.72688 17.73704 42.72688 41.43484 0 23.69782-19.16563 43.20299-42.72688 43.20299-14.18183 0-27.22512-7.17555-35.11655-18.67481l-81.09406 13.5552c-1.01576 19.91879-9.63556 38.6295-24.08195 52.23792l13.74938 28.53312c6.34913 3.54934 10.55849 10.28028 10.55849 17.75807 0 11.18679-9.24095 20.42428-20.42615 20.42428-11.18521 0-20.35521-9.30664-20.35521-20.42428v1.07918l-.54893-1.07918h-.002-3.98815l3.55311-.85327-13.95102-27.36806c-7.00843 2.06896-14.27647 3.15168-21.58936 3.15168-8.56577 0-17.05691-1.45914-25.10886-4.24021l-26.3262 40.49756c4.47293 6.33695 7.67754 13.15225 7.67754 22.64241 0 29.45551-22.81939 54.25439-52.88954 54.25439-14.78714 0-27.65181-5.70016-36.26296-15.34389-8.61114-9.64371-12.94278-22.77609-12.94278-37.06767 0-14.50538 5.13466-27.2247 14.4402-35.83912 9.30555-8.61443 22.23237-12.89051 36.60837-12.89051 3.84366 0 6.96059.5894 9.86206 1.43394l25.14433-41.76718c-11.29469-13.79532-17.57862-31.11036-17.57862-49.05451 0-12.71416 3.2714-25.10717 9.1843-36.23868l-35.25098-23.15587c-3.39574 1.19524-6.9499 1.85965-10.52862 1.85965-18.37883-.00002-31.88085-16.22128-31.88085-33.72182 0-17.54225 13.49999-33.79277 31.88085-33.79277 17.53406 0 33.72556 13.57132 33.72556 31.9518 0 .83695-.043 2.24923-.0952 3.65579l37.55686 24.91281c12.63843-8.37729 27.52042-12.84383 42.78476-12.84383 1.70634 0 3.42896.0858 5.15321.20912l22.28019-44.0712c-6.15895-7.63329-9.66228-17.18678-9.66228-27.17761 0-23.7125 19.38501-43.20485 43.06857-43.20485zm24.71489 39.35862c.12537.83524.21112 1.68567.25393 2.54673-.0428-.86102-.12856-1.71153-.25393-2.54673zm-156.56627 90.68725 28.9383 19.19573 5.14201-4.0983-5.14201 4.09644zm281.14152 9.69963c.57496.48223 1.12373.99194 1.64305 1.52915-.51932-.5372-1.06809-1.04692-1.64305-1.52915zm-253.47659 10.3363-5.30445 7.61779 5.30632-7.61779h-.002zm89.98336 5.04118c1.67834 2.14556 3.21301 4.41036 4.58748 6.77947-1.37466-2.36893-2.90889-4.63414-4.58748-6.77947zm4.58934 6.78134c1.3744 2.36921 2.58855 4.84374 3.63153 7.40681l2.73345 6.71225-2.73158-6.71225c-1.04328-2.56379-2.2584-5.03708-3.6334-7.40681zm159.52563 13.39462c-.5569.56535-1.13929 1.10482-1.74761 1.61318.60867-.50864 1.19041-1.04748 1.74761-1.61318zm-229.64483 72.50724c2.0218.68433 4.08144 1.25924 6.16706 1.72148-2.08561-.46224-4.14529-1.03716-6.16706-1.72148z"/><path d="m404.8327 330.93274c-23.68356 0-43.06857 19.49235-43.06857 43.20485 0 9.99083 3.50332 19.54432 9.66228 27.17761l-22.28019 44.0712c-1.72425-.12337-3.44687-.20912-5.15321-.20912-15.26434 0-30.14633 4.46654-42.78476 12.84383l-37.55686-24.91281c.0522-1.40656.0952-2.81884.0952-3.65579 0-18.38048-16.1915-31.9518-33.72556-31.9518-18.38086 0-31.88086 16.25052-31.88086 33.79277 0 17.50054 13.50202 33.7218 31.88086 33.72182 3.57872 0 7.13288-.66441 10.52861-1.85965l35.25098 23.15587c-5.91289 11.13151-9.18429 23.52452-9.18429 36.23868 0 17.94415 6.28393 35.25919 17.57881 49.05451l-25.14433 41.76718c-2.90148-.84454-6.0184-1.43394-9.86206-1.43394-14.376 0-27.30283 4.27608-36.60837 12.89051-9.30554 8.61442-14.44021 21.33374-14.44021 35.83912 0 14.29158 4.33165 27.42396 12.94279 37.06767 8.61115 9.64373 21.47581 15.34389 36.26296 15.34389 30.07015 0 52.88954-24.79888 52.88954-54.25439 0-9.49016-3.20462-16.30546-7.67755-22.64241l26.32621-40.49756c8.05195 2.78107 16.54309 4.24021 25.10886 4.24021 7.31289 0 14.58093-1.08272 21.58936-3.15168l14.93685 29.30051v-1.07918c0 11.11764 9.17 20.42428 20.35521 20.42428 11.1852 0 20.42615-9.23749 20.42615-20.42428 0-7.47779-4.20936-14.20873-10.55849-17.75807l-13.74937-28.53312c14.44639-13.60842 23.06619-32.31913 24.08195-52.23792l81.09406-13.5552c7.89143 11.49926 20.93472 18.67481 35.11655 18.67481 23.56125 0 42.72688-19.50517 42.72688-43.20299 0-23.6978-19.73809-41.43486-42.72688-41.43484h-.0186-.0205c-16.96445.0746-32.92982 9.50631-39.48372 25.37211l-85.26518 14.46074c-6.31773-12.0968-15.76005-22.26297-27.2859-29.53016l19.24801-39.87767c.12872.00095.24429.0355.37343.0355 23.73366 0 43.06855-19.52862 43.06855-43.27022-.00004-23.6909-19.33401-43.20485-43.06855-43.20485zm0 9.03306c18.82474 0 34.03359 15.3472 34.03362 34.17179 0 18.89284-15.20888 34.23715-34.03362 34.23715-1.90975 0-3.88946-.20416-5.79924-.5452l-25.64285 53.13226c15.34628 7.29802 27.41693 20.12099 33.82825 35.87647l97.33042-16.50523c3.6831-15.34626 17.18514-24.28245 32.73599-24.35081 18.62012-.00001 33.69382 13.507 33.69382 32.39992 0 18.89296-15.0737 34.16805-33.69382 34.16805-13.02727 0-24.89328-7.63689-30.48612-19.57289l-94.6698 15.82374c.068 1.22771.13816 2.52145.13816 3.74915.00001 21.07464-9.75405 40.99198-26.39529 53.88285l18.14081 37.64834c4.9108 1.43231 8.25448 5.866 8.25448 10.91325 0 6.27491-5.11819 11.39121-11.39308 11.39121-6.27491 0-11.32028-5.1163-11.32028-11.39121v-1.0904l-19.50566-38.26262c-8.25289 3.47845-17.12053 5.2503-26.05548 5.2503-9.88978 0-19.7102-2.18203-28.64516-6.34256l-33.81704 52.02507c6.47956 7.98007 9.67161 11.95126 9.67161 22.25032 0 24.96326-18.62059 45.22133-43.85647 45.22133-25.16769 0-40.17268-18.41525-40.17268-43.3785 0-24.96236 16.77961-39.69657 42.01551-39.69657 6.00199 0 8.25283 1.16043 13.77738 3.41121l32.39617-53.81376c-12.61791-12.82267-19.71104-30.08105-19.71104-48.01826 0-13.98212 4.29814-27.6219 12.27809-39.08042l-46.51523-30.55521c-3.4785 2.04618-7.36896 3.06766-11.39309 3.06766-12.61797-.00001-22.84779-12.07069-22.84779-24.68875 0-12.68586 10.22982-24.75971 22.84779-24.75971 12.61793 0 24.69063 10.30077 24.69063 22.91874 0 1.56847-.1351 6.7502-.47612 8.25074l47.1986 31.30765c12.0724-9.61699 27.07617-14.80055 42.55884-14.80055 3.47849 0 6.95775.27114 10.36804.885l27.9618-55.31304c-7.29798-6.47947-11.52565-15.82321-11.52565-25.64472 0-18.82459 15.27986-34.17179 34.0355-34.17179z" fill="url(#a)" opacity=".718"/></g></svg>