<?xml version="1.0" encoding="UTF-8"?>
<svg width="100" height="35" version="1.1" viewBox="0 0 100 35" xmlns="http://www.w3.org/2000/svg" xmlns:cc="http://creativecommons.org/ns#" xmlns:dc="http://purl.org/dc/elements/1.1/" xmlns:rdf="http://www.w3.org/1999/02/22-rdf-syntax-ns#" xmlns:xlink="http://www.w3.org/1999/xlink">
<title>Icinga logo</title>
<desc>A free and open source system and networking monitoring application forked from Nagios</desc>
 <metadata>
  <rdf:RDF>
   <cc:Work rdf:about="">
    <dc:format>image/svg+xml</dc:format>
    <dc:type rdf:resource="http://purl.org/dc/dcmitype/StillImage"/>
    <dc:title/>
   </cc:Work>
  </rdf:RDF>
 </metadata>
 <defs>
  <polygon id="a" points="0.535 19 13.2 19 13.2 0.149 0.535 0.149"/>
  <polygon id="c" points="0.726 19 13.8 19 13.8 0.176 0.726 0.176"/>
  <polygon id="e" points="0 0.703 0 7.98 7.27 7.98 7.27 0.703"/>
 </defs>
 <g fill="none" fill-rule="evenodd" style="fill:#1a1a1a">
  <path d="m26.9 32.6c0 0.402 0.161 0.751 0.456 1.05 0.294 0.295 0.616 0.429 1.02 0.429 0.402 0 0.75-0.134 1.05-0.429 0.294-0.295 0.429-0.644 0.429-1.05v-14.7c0-0.402-0.135-0.751-0.429-1.05-0.296-0.295-0.644-0.429-1.05-0.429-0.403 0-0.751 0.134-1.05 0.429s-0.429 0.644-0.429 1.05z" fill="#fff" style="fill:#040404"/>
  <g transform="translate(32 15.6)" style="fill:#040404">
   <mask id="b" fill="#ffffff">
    <use width="100%" height="100%" xlink:href="#a"/>
   </mask>
   <path d="m0.535 12.5c0 0.885 0.188 1.74 0.537 2.52 0.348 0.778 0.804 1.48 1.39 2.06s1.29 1.05 2.09 1.39c0.778 0.349 1.64 0.537 2.52 0.537 0.698 0 1.37-0.108 1.98-0.295 0.617-0.188 1.21-0.483 1.72-0.858 0.51-0.349 0.992-0.778 1.4-1.29 0.402-0.51 0.697-1.05 0.938-1.66 0.08-0.161 0.107-0.349 0.107-0.563 0-0.349-0.134-0.697-0.375-0.992-0.268-0.295-0.617-0.456-1.07-0.456-0.241 0-0.482 0.08-0.724 0.242-0.268 0.16-0.456 0.375-0.59 0.616-0.295 0.67-0.723 1.21-1.31 1.64-0.617 0.456-1.29 0.67-2.07 0.67-0.482 0-0.938-0.108-1.37-0.295-0.456-0.188-0.831-0.429-1.15-0.751-0.348-0.321-0.616-0.697-0.804-1.15-0.188-0.429-0.295-0.885-0.295-1.37v-5.82c0-0.483 0.107-0.938 0.295-1.39 0.188-0.429 0.429-0.805 0.778-1.13 0.321-0.322 0.696-0.59 1.15-0.777 0.429-0.188 0.885-0.268 1.39-0.268 0.778 0 1.45 0.215 2.07 0.643 0.59 0.429 1.02 0.965 1.29 1.64 0.294 0.59 0.724 0.885 1.34 0.885 0.456 0 0.831-0.161 1.07-0.456 0.241-0.295 0.375-0.644 0.375-0.992 0-0.108 0-0.242-0.027-0.376-0.026-0.134-0.08-0.268-0.16-0.402-0.242-0.563-0.563-1.1-0.966-1.58-0.402-0.456-0.884-0.885-1.39-1.23-0.51-0.348-1.07-0.616-1.69-0.804-0.617-0.187-1.23-0.268-1.9-0.268-0.911 0-1.77 0.161-2.55 0.51-0.805 0.348-1.5 0.804-2.09 1.39s-1.05 1.29-1.39 2.06c-0.349 0.805-0.51 1.66-0.51 2.55z" fill="#fff" mask="url(#b)" style="fill:#040404"/>
  </g>
  <path d="m48.1 32.6c0 0.402 0.161 0.751 0.456 1.05s0.617 0.429 1.02 0.429 0.751-0.134 1.05-0.429c0.294-0.295 0.429-0.644 0.429-1.05v-14.7c0-0.402-0.135-0.751-0.429-1.05-0.295-0.295-0.644-0.429-1.05-0.429s-0.751 0.134-1.05 0.429-0.429 0.644-0.429 1.05zm5.68 0c0 0.402 0.134 0.751 0.429 1.05s0.644 0.429 1.05 0.429 0.751-0.134 1.05-0.429c0.268-0.295 0.402-0.644 0.402-1.05v-10.3c0-0.483 0.107-0.938 0.295-1.39 0.188-0.429 0.429-0.804 0.751-1.13 0.322-0.321 0.697-0.589 1.15-0.777 0.429-0.188 0.884-0.268 1.39-0.268 0.509 0 0.965 0.08 1.42 0.268 0.429 0.188 0.805 0.456 1.15 0.777 0.322 0.323 0.59 0.698 0.778 1.13 0.187 0.456 0.268 0.911 0.268 1.39v10.3c0 0.402 0.161 0.751 0.456 1.05s0.616 0.429 1.02 0.429c0.402 0 0.75-0.134 1.04-0.429 0.268-0.295 0.403-0.644 0.403-1.05v-10.3c0-0.885-0.161-1.74-0.51-2.52-0.348-0.777-0.831-1.47-1.42-2.06s-1.29-1.07-2.06-1.42c-0.804-0.349-1.66-0.51-2.55-0.51s-1.74 0.161-2.52 0.51c-0.805 0.348-1.5 0.831-2.09 1.42s-1.05 1.29-1.39 2.06c-0.349 0.778-0.51 1.64-0.51 2.52z" fill="#fff" style="fill:#040404"/>
  <g transform="translate(69 15.6)" style="fill:#040404">
   <mask id="d" fill="#ffffff">
    <use width="100%" height="100%" xlink:href="#c"/>
   </mask>
   <path d="m0.726 12.5c0 0.885 0.187 1.74 0.536 2.52 0.349 0.778 0.805 1.48 1.4 2.06s1.29 1.05 2.09 1.39c0.777 0.349 1.64 0.537 2.52 0.537 0.886 0 1.74-0.188 2.55-0.537 0.778-0.348 1.48-0.804 2.06-1.39s1.07-1.29 1.42-2.06c0.348-0.777 0.509-1.64 0.509-2.52v-2.2c0-0.402-0.134-0.751-0.429-1.05-0.295-0.268-0.643-0.402-1.04-0.402h-2.92c-0.402 0-0.751 0.134-1.02 0.429-0.295 0.295-0.429 0.617-0.429 1.02s0.134 0.751 0.429 1.05c0.268 0.295 0.617 0.429 1.02 0.429h1.45v0.724c0 0.482-0.081 0.938-0.268 1.37-0.188 0.456-0.456 0.832-0.778 1.15-0.321 0.322-0.697 0.563-1.13 0.751-0.456 0.187-0.912 0.295-1.42 0.295-0.482 0-0.938-0.108-1.37-0.295-0.456-0.188-0.831-0.429-1.15-0.751-0.348-0.321-0.59-0.697-0.777-1.15-0.188-0.429-0.295-0.885-0.295-1.37v-5.79c0-0.483 0.107-0.938 0.295-1.4 0.187-0.429 0.429-0.804 0.751-1.13 0.321-0.322 0.696-0.59 1.15-0.777 0.429-0.188 0.885-0.268 1.39-0.268 0.778 0 1.45 0.214 2.06 0.643 0.59 0.429 1.02 0.992 1.31 1.66 0.134 0.296 0.322 0.51 0.563 0.644 0.242 0.134 0.51 0.215 0.751 0.215 0.456 0 0.831-0.161 1.07-0.456 0.241-0.295 0.375-0.644 0.375-0.992v-0.322c-0.027-0.081-0.054-0.188-0.08-0.268-0.242-0.617-0.563-1.15-0.965-1.66-0.403-0.51-0.885-0.938-1.4-1.29-0.536-0.348-1.13-0.643-1.74-0.831s-1.29-0.295-1.96-0.295c-0.884 0-1.74 0.161-2.52 0.51-0.804 0.348-1.5 0.803-2.09 1.39-0.59 0.591-1.05 1.29-1.4 2.06-0.349 0.805-0.536 1.66-0.536 2.55z" fill="#fff" mask="url(#d)" style="fill:#040404"/>
  </g>
  <path d="m94.3 26.4h-4.32c0.187-0.456 0.375-0.912 0.563-1.31s0.348-0.804 0.536-1.21c0.188-0.402 0.348-0.804 0.536-1.21 0.161-0.401 0.349-0.804 0.536-1.23zm-9.87 5.71c-0.027 0.081-0.054 0.162-0.081 0.268-0.027 0.107-0.027 0.215-0.027 0.295 0 0.349 0.135 0.671 0.403 0.966 0.241 0.322 0.59 0.483 1.05 0.483 0.295 0 0.536-0.081 0.777-0.215 0.242-0.134 0.429-0.375 0.563-0.67 0.269-0.671 0.537-1.31 0.832-1.96 0.268-0.617 0.536-1.26 0.831-1.93h6.78l1.66 3.89c0.241 0.59 0.67 0.885 1.34 0.885 0.456 0 0.805-0.161 1.07-0.483 0.241-0.295 0.375-0.617 0.375-0.966 0-0.16-0.053-0.348-0.134-0.563l-6.38-14.9c-0.133-0.321-0.402-0.562-0.778-0.75-0.08-0.054-0.187-0.08-0.267-0.107-0.108-0.027-0.215-0.027-0.296-0.027-0.616 0-1.04 0.295-1.34 0.884z" fill="#fff" style="fill:#040404"/>
  <path d="m12.2 16.2-7.97 11.4m7.97-11.4 16.5-4.07m-16.2 4.41 4.62 7.72m-6.59-9.97-6.78-5.56m9.41 4.33 3.99-8.3" stroke="#fff" stroke-width=".75" style="fill:#040404;stroke:#040404"/>
  <g transform="translate(0 23.6)" style="fill:#040404">
   <mask id="f" fill="#ffffff">
    <use width="100%" height="100%" xlink:href="#e"/>
   </mask>
   <path d="m0.0103 4.61c-0.151-2 1.35-3.75 3.35-3.9 2-0.153 3.75 1.35 3.9 3.35 0.15 2-1.35 3.75-3.35 3.9-2 0.151-3.75-1.35-3.9-3.35" fill="#fff" mask="url(#f)" style="fill:#040404"/>
  </g>
  <path d="m16 24.4c0.071-0.62 0.632-1.06 1.25-0.994 0.621 0.072 1.06 0.634 0.994 1.25-0.074 0.621-0.634 1.07-1.25 0.995-0.621-0.072-1.07-0.633-0.994-1.26m-13.7-14.8c-0.391-0.798-0.06-1.76 0.74-2.16 0.799-0.391 1.76-0.06 2.16 0.739 0.39 0.799 0.06 1.76-0.74 2.16s-1.76 0.06-2.16-0.74m23.8 2.43c-0.092-1.22 0.819-2.28 2.04-2.37 1.22-0.091 2.28 0.82 2.37 2.04 0.091 1.22-0.82 2.28-2.04 2.37-1.22 0.091-2.28-0.82-2.37-2.04m-9.98-11.4c1.2-0.98 2.97-0.799 3.95 0.403 0.98 1.2 0.799 2.97-0.403 3.95-1.2 0.978-2.97 0.798-3.95-0.404-0.982-1.2-0.8-2.97 0.402-3.95m-7.6 10.9c2.31-1.88 5.71-1.54 7.59 0.774 1.88 2.31 1.53 5.71-0.774 7.59-2.31 1.88-5.71 1.54-7.59-0.776-1.89-2.31-1.54-5.71 0.772-7.59" fill="#fff" style="fill:#040404"/>
 </g>
</svg>
