<svg fill="none" height="220" viewBox="0 0 220 220" width="220" xmlns="http://www.w3.org/2000/svg"><path d="m148.17 53.4297h-117.4163v118.8033h117.4163z" fill="#4e4c4d"/><path d="m148.766 156.332h-118.6092c-11.7029 0-21.19 9.487-21.19 21.19v16.235c0 11.702 9.4871 21.189 21.19 21.189h118.6092c11.703 0 21.19-9.487 21.19-21.19v-16.234c0-11.703-9.487-21.19-21.19-21.19z" fill="#656766"/><path d="m148.766 80.3403h-118.6092c-11.7029 0-21.19 9.4871-21.19 21.1897v16.235c0 11.703 9.4871 21.19 21.19 21.19h118.6092c11.703 0 21.19-9.487 21.19-21.19v-16.235c0-11.7026-9.487-21.1897-21.19-21.1897z" fill="#656766"/><path d="m148.766 4.38672h-118.6092c-11.7029 0-21.19 9.48708-21.19 21.18998v16.2345c0 11.7029 9.4871 21.19 21.19 21.19h118.6092c11.703 0 21.19-9.4871 21.19-21.19v-16.2345c0-11.7029-9.487-21.18998-21.19-21.18998z" fill="#656766"/><path d="m40.1863 44.9741c6.2297 0 11.28-5.0503 11.28-11.28 0-6.2298-5.0503-11.28-11.28-11.28-6.2298 0-11.2801 5.0502-11.2801 11.28 0 6.2297 5.0503 11.28 11.2801 11.28z" fill="#ec6e62"/><path d="m72.2453 44.9741c6.2298 0 11.28-5.0503 11.28-11.28 0-6.2298-5.0502-11.28-11.28-11.28-6.2297 0-11.28 5.0502-11.28 11.28 0 6.2297 5.0503 11.28 11.28 11.28z" fill="#85bd57"/><path d="m40.1863 120.928c6.2297 0 11.28-5.051 11.28-11.28 0-6.23-5.0503-11.2803-11.28-11.2803-6.2298 0-11.2801 5.0503-11.2801 11.2803 0 6.229 5.0503 11.28 11.2801 11.28z" fill="#ec6e62"/><path d="m72.2453 120.928c6.2298 0 11.28-5.051 11.28-11.28 0-6.23-5.0502-11.2803-11.28-11.2803-6.2297 0-11.28 5.0503-11.28 11.2803 0 6.229 5.0503 11.28 11.28 11.28z" fill="#85bd57"/><path d="m40.1863 196.919c6.2297 0 11.28-5.05 11.28-11.28 0-6.229-5.0503-11.28-11.28-11.28-6.2298 0-11.2801 5.051-11.2801 11.28 0 6.23 5.0503 11.28 11.2801 11.28z" fill="#ec6e62"/><path d="m72.2453 196.919c6.2298 0 11.28-5.05 11.28-11.28 0-6.229-5.0502-11.28-11.28-11.28-6.2297 0-11.28 5.051-11.28 11.28 0 6.23 5.0503 11.28 11.28 11.28z" fill="#85bd57"/><path d="m162.07 195.87c27.04 0 48.96-21.92 48.96-48.959 0-27.04-21.92-48.9598-48.96-48.9598-27.039 0-48.959 21.9198-48.959 48.9598 0 27.039 21.92 48.959 48.959 48.959z" fill="#e7e3e6"/><path d="m121.089 146.911h12.468c.344-15.476 12.955-27.93 28.514-27.93v-12.468c-22.449 0-40.636 18.032-40.982 40.398z" fill="#85bd57"/><path d="m162.071 106.513v12.468c15.558 0 28.169 12.454 28.513 27.93h12.468c-.346-22.366-18.533-40.398-40.981-40.398z" fill="#ec6e62"/><path d="m167.453 148.235c1.465 1.563 1.273 4.046-.436 5.355s-4.157.848-5.284-.974c0 0-12.89-20.09-11.604-21.075s17.324 16.694 17.324 16.694z" fill="#656766"/><path d="m162.07 152.807c3.257 0 5.897-2.64 5.897-5.896 0-3.257-2.64-5.897-5.897-5.897-3.256 0-5.896 2.64-5.896 5.897 0 3.256 2.64 5.896 5.896 5.896z" fill="#4e4c4d"/><path d="m162.07 149.838c1.617 0 2.928-1.31 2.928-2.927s-1.311-2.927-2.928-2.927c-1.616 0-2.927 1.31-2.927 2.927s1.311 2.927 2.927 2.927z" fill="#656766"/><g fill="#ba8c5c"><path d="m142.091 175.956c-1.929 0-3.493-1.564-3.493-3.493v-3.992c0-1.929 1.564-3.493 3.493-3.493s3.493 1.564 3.493 3.493v3.992c0 1.929-1.564 3.493-3.493 3.493z"/><path d="m155.411 175.956c-1.929 0-3.493-1.564-3.493-3.493v-3.992c0-1.929 1.564-3.493 3.493-3.493s3.493 1.564 3.493 3.493v3.992c0 1.929-1.564 3.493-3.493 3.493z"/><path d="m168.73 175.956c-1.929 0-3.493-1.564-3.493-3.493v-3.992c0-1.929 1.564-3.493 3.493-3.493s3.493 1.564 3.493 3.493v3.992c0 1.929-1.564 3.493-3.493 3.493z"/><path d="m182.05 175.956c-1.93 0-3.493-1.564-3.493-3.493v-3.992c0-1.929 1.563-3.493 3.493-3.493 1.929 0 3.493 1.564 3.493 3.493v3.992c0 1.929-1.564 3.493-3.493 3.493z"/></g></svg>