<svg enable-background="new 0 0 500 500" height="500" viewBox="0 0 500 500" width="500" xmlns="http://www.w3.org/2000/svg"><g fill="#07242d"><path d="m186.582 441.1v8.203c-5.588 0-10.623-2.012-14.594-5.346-4.989-4.186-8.157-10.469-8.157-17.489v-41.085h8.157v18.642h14.594v8.257h-14.594v14.386c.112 7.988 6.583 14.432 14.594 14.432z"/><path d="m215.674 404.024v8.149c-7.739.015-14.037 6.152-14.317 13.818v23.312h-8.176v-45.279h8.176v5.169c3.886-3.226 8.875-5.161 14.317-5.169z"/><path d="m220.928 393.524v-8.165h8.161v8.165zm0 55.779v-45.279h8.161v45.279z"/><path d="m279.137 404.024-22.624 45.279-22.647-45.279h9.271l13.376 26.737 13.349-26.737z"/><path d="m328.08 404.024v52.776c0 12.643-10.369 22.736-22.655 22.728-5.753 0-11.084-2.181-15.131-5.807l5.868-5.868c2.504 2.12 5.734 3.41 9.263 3.403 7.95 0 14.386-6.498 14.386-14.456v-12.65c-3.944 3.264-8.979 5.154-14.386 5.154-12.309.008-22.674-9.924-22.674-22.659 0-.269 0-22.62 0-22.62h8.265s.004 22.014.004 22.62c0 7.919 6.448 14.463 14.406 14.456 7.95 0 14.386-6.506 14.386-14.456v-22.62h8.268z"/></g><path d="m250.003 198.745 130.121-75.141-130.119-75.142-130.149 75.16z" fill="#f69421"/><path d="m307.849 164.921c-.317-.628-.644-1.249-.978-1.86-6.381-11.683-15.986-20.898-27.774-26.646-30.74-14.993-69.14-2.215-87.41 29.095l-3.16-1.844c19.231-32.951 59.717-46.365 92.173-30.537 12.474 6.083 22.634 15.828 29.381 28.179.378.691.747 1.395 1.104 2.106z" fill="#fff"/><path d="m340.029 145.899c-.693-.851-1.408-1.727-1.95-2.604-10.641-17.213-24.699-30.163-41.784-38.496-48.873-23.834-108.91-5.31-136.682 42.169l-3.158-1.848c28.734-49.117 90.861-68.274 141.443-43.609 17.716 8.64 32.282 22.051 43.292 39.859.417.674 1.028 1.425 1.675 2.218z" fill="#fff"/><path d="m250.003 200.562c-.314 0-.627-.081-.908-.243l-130.147-75.123c-.562-.325-.908-.924-.908-1.574 0-.648.346-1.249.908-1.574l130.149-75.159c.562-.325 1.255-.325 1.817 0l130.118 75.141c.562.325.908.924.908 1.574 0 .649-.346 1.249-.908 1.574l-130.12 75.141c-.281.161-.595.243-.909.243zm-126.513-76.94 126.513 73.025 126.488-73.043-126.486-73.044z" fill="#fff"/><path d="m251.169 351.078-131.305-75.79v-151.663l131.305 75.826z" fill="#08b1d5"/><path d="m255.56 307.022c-74.72-22.26-119.248-94.96-99.258-162.058l.157-.479 3.502 1.058-.155.472c-19.412 65.158 24.011 135.818 96.799 157.503z" fill="#fff"/><path d="m192.616 165.145c-3.08 18.413.649 37.88 10.683 54.644 12.932 21.607 34.745 36.525 61.42 42.004l-.735 3.584c-27.692-5.689-50.358-21.212-63.824-43.71-10.643-17.783-14.493-38.494-10.996-58.022z" fill="#fff"/><path d="m251.169 352.895c-.314 0-.627-.081-.908-.243l-131.304-75.79c-.562-.325-.908-.924-.908-1.574v-151.663c0-.649.346-1.249.908-1.574s1.255-.325 1.817 0l131.304 75.826c.562.325.908.924.908 1.574v151.628c0 .649-.346 1.249-.908 1.574-.282.162-.596.242-.909.242zm-129.488-78.656 127.671 73.693v-147.433l-127.671-73.727z" fill="#fff"/><path d="m251.169 351.108 128.974-75.789v-151.663l-130.153 75.825z" fill="#0d819b"/><path d="m249.425 301.621c69.14-23.695 109.647-92.235 90.775-155.582l-.15-.456 3.495-1.076.162.489c19.488 65.415-22.346 136.155-93.696 160.288z" fill="#fff"/><path d="m248.84 258.208c22.672-7.355 39.791-20.048 49.948-37.174 9.685-16.328 12.678-35.968 8.695-56.093l3.465-1.325c4.344 21.224 1.236 42.002-9.014 59.284-10.793 18.197-29.004 31.576-53.095 39.149z" fill="#fff"/><path d="m251.169 352.895c-.309 0-.618-.079-.896-.237-.565-.32-.915-.917-.92-1.566l-1.179-151.597c-.005-.652.339-1.256.902-1.584l130.154-75.826c.562-.326 1.256-.328 1.82-.005.564.325.911.925.911 1.575v151.663c0 .644-.341 1.24-.896 1.567l-128.975 75.76c-.285.167-.603.25-.921.25zm.645-152.374 1.147 147.398 125.366-73.64v-147.463z" fill="#fff"/><path d="m226.242 183.387c-.112.184-.061.803-.061.803-.02.26-.049.798-.063 1.057-.817 14.92 8.01 28.668 22.73 35.291l.303.152c.005-.002.01-.005.016-.007.123.055.202-.085.202-.085 18.107-8.831 25.339-20.666 24.35-36.399l-.019-.382c-.199-.424-.398-.848-.618-1.26-2.487-4.665-6.321-8.547-11.298-10.974-12.526-6.109-27.837-.817-35.526 11.777" fill="#f0df36"/><path d="m248.969 222.646-.941-.472c-15.247-6.861-24.591-21.406-23.736-37.026.013-.238.036-.671.056-.961-.065-1.1.222-1.57.332-1.752l3.125 1.9c.004-.007.009-.014.013-.023l-3.12-1.906c8.299-13.592 24.587-18.954 37.889-12.467 5.164 2.519 9.351 6.585 12.11 11.758.235.44.45.893.661 1.347l.152.325.037.737c1.067 16.968-6.916 29.06-25.122 38.013-.295.225-.645.363-1.01.398zm-20.967-38.628c.001.012.002.021.002.024l.011.141-.01.147c-.019.246-.046.755-.059 1.008-.764 13.955 7.546 26.985 21.209 33.33 16.468-8.202 23.698-19.134 22.74-34.354l-.002-.044c-.136-.286-.275-.571-.424-.851-2.395-4.49-6.02-8.015-10.486-10.193-11.503-5.605-25.617-.964-32.981 10.792zm-.002-.204v.002z" fill="#fff"/></svg>